{
  "asset": {
    "version": "2.0",
    "generator": "THREE.GLTFExporter"
  },
  "scenes": [
    {
      "name": "Scene",
      "nodes": [
        6
      ]
    }
  ],
  "scene": 0,
  "nodes": [
    {
      "name": "Object_2",
      "extras": {
        "name": "Object_2"
      },
      "mesh": 0
    },
    {
      "name": "Object_3",
      "extras": {
        "name": "Object_3"
      },
      "mesh": 1
    },
    {
      "name": "Object_4",
      "extras": {
        "name": "Object_4"
      },
      "mesh": 2
    },
    {
      "name": "Object_5",
      "extras": {
        "name": "Object_5"
      },
      "mesh": 3
    },
    {
      "name": "Object_6",
      "extras": {
        "name": "Object_6"
      },
      "mesh": 4
    },
    {
      "matrix": [
        0.0017111091874539852,
        0,
        0,
        0,
        0,
        0.0017111095366999507,
        0,
        0,
        0,
        0,
        0.0017111095366999507,
        0,
        0,
        0,
        0,
        1
      ],
      "name": "Pigeon",
      "extras": {
        "name": "Pigeon"
      },
      "children": [
        0,
        1,
        2,
        3,
        4
      ]
    },
    {
      "name": "PIDGEY.glb",
      "children": [
        5
      ]
    }
  ],
  "bufferViews": [
    {
      "buffer": 0,
      "byteOffset": 0,
      "byteLength": 11592,
      "target": 34962,
      "byteStride": 12
    },
    {
      "buffer": 0,
      "byteOffset": 11592,
      "byteLength": 11592,
      "target": 34962,
      "byteStride": 12
    },
    {
      "buffer": 0,
      "byteOffset": 23184,
      "byteLength": 7728,
      "target": 34962,
      "byteStride": 8
    },
    {
      "buffer": 0,
      "byteOffset": 30912,
      "byteLength": 9216,
      "target": 34963
    },
    {
      "buffer": 0,
      "byteOffset": 40128,
      "byteLength": 42048,
      "target": 34962,
      "byteStride": 12
    },
    {
      "buffer": 0,
      "byteOffset": 82176,
      "byteLength": 42048,
      "target": 34962,
      "byteStride": 12
    },
    {
      "buffer": 0,
      "byteOffset": 124224,
      "byteLength": 28032,
      "target": 34962,
      "byteStride": 8
    },
    {
      "buffer": 0,
      "byteOffset": 152256,
      "byteLength": 38784,
      "target": 34963
    },
    {
      "buffer": 0,
      "byteOffset": 191040,
      "byteLength": 7752,
      "target": 34962,
      "byteStride": 12
    },
    {
      "buffer": 0,
      "byteOffset": 198792,
      "byteLength": 7752,
      "target": 34962,
      "byteStride": 12
    },
    {
      "buffer": 0,
      "byteOffset": 206544,
      "byteLength": 5168,
      "target": 34962,
      "byteStride": 8
    },
    {
      "buffer": 0,
      "byteOffset": 211712,
      "byteLength": 6336,
      "target": 34963
    },
    {
      "buffer": 0,
      "byteOffset": 218048,
      "byteLength": 1752,
      "target": 34962,
      "byteStride": 12
    },
    {
      "buffer": 0,
      "byteOffset": 219800,
      "byteLength": 1752,
      "target": 34962,
      "byteStride": 12
    },
    {
      "buffer": 0,
      "byteOffset": 221552,
      "byteLength": 1168,
      "target": 34962,
      "byteStride": 8
    },
    {
      "buffer": 0,
      "byteOffset": 222720,
      "byteLength": 1152,
      "target": 34963
    },
    {
      "buffer": 0,
      "byteOffset": 223872,
      "byteLength": 7752,
      "target": 34962,
      "byteStride": 12
    },
    {
      "buffer": 0,
      "byteOffset": 231624,
      "byteLength": 7752,
      "target": 34962,
      "byteStride": 12
    },
    {
      "buffer": 0,
      "byteOffset": 239376,
      "byteLength": 5168,
      "target": 34962,
      "byteStride": 8
    }
  ],
  "buffers": [
    {
      "byteLength": 244544,
      "uri": "data:application/octet-stream;base64,"
    }
  ],
  "accessors": [
    {
      "bufferView": 0,
      "componentType": 5126,
      "count": 966,
      "max": [
        101.00592803955078,
        24.195280075073242,
        65.38203430175781
      ],
      "min": [
        -101.00592803955078,
        -70.87113189697266,
        -101.0599594116211
      ],
      "type": "VEC3"
    },
    {
      "bufferView": 1,
      "componentType": 5126,
      "count": 966,
      "max": [
        0.99932861328125,
        0.9978637099266052,
        0.9971923232078552
      ],
      "min": [
        -0.99932861328125,
        -0.9981383681297302,
        -0.9962767362594604
      ],
      "type": "VEC3"
    },
    {
      "bufferView": 2,
      "componentType": 5126,
      "count": 966,
      "max": [
        1,
        1
      ],
      "min": [
        0,
        0
      ],
      "type": "VEC2"
    },
    {
      "bufferView": 3,
      "componentType": 5123,
      "count": 4608,
      "max": [
        965
      ],
      "min": [
        0
      ],
      "type": "SCALAR"
    },
    {
      "bufferView": 4,
      "componentType": 5126,
      "count": 3504,
      "max": [
        86.89496612548828,
        245.95077514648438,
        114.53485870361328
      ],
      "min": [
        -86.89497375488281,
        -196.4755859375,
        -150.0059051513672
      ],
      "type": "VEC3"
    },
    {
      "bufferView": 5,
      "componentType": 5126,
      "count": 3504,
      "max": [
        0.999969482421875,
        0.999908447265625,
        0.9988402724266052
      ],
      "min": [
        -0.999969482421875,
        -0.999725341796875,
        -0.999786376953125
      ],
      "type": "VEC3"
    },
    {
      "bufferView": 6,
      "componentType": 5126,
      "count": 3504,
      "max": [
        1,
        1
      ],
      "min": [
        0,
        0
      ],
      "type": "VEC2"
    },
    {
      "bufferView": 7,
      "componentType": 5123,
      "count": 19392,
      "max": [
        3503
      ],
      "min": [
        0
      ],
      "type": "SCALAR"
    },
    {
      "bufferView": 8,
      "componentType": 5126,
      "count": 646,
      "max": [
        80.9359359741211,
        195.6083221435547,
        91.34663391113281
      ],
      "min": [
        -80.9359359741211,
        131.09036254882812,
        26.828670501708984
      ],
      "type": "VEC3"
    },
    {
      "bufferView": 9,
      "componentType": 5126,
      "count": 646,
      "max": [
        1,
        0.9910580515861511,
        1
      ],
      "min": [
        -1,
        -0.9910580515861511,
        -1
      ],
      "type": "VEC3"
    },
    {
      "bufferView": 10,
      "componentType": 5126,
      "count": 646,
      "max": [
        1,
        1
      ],
      "min": [
        0,
        0
      ],
      "type": "VEC2"
    },
    {
      "bufferView": 11,
      "componentType": 5123,
      "count": 3168,
      "max": [
        645
      ],
      "min": [
        0
      ],
      "type": "SCALAR"
    },
    {
      "bufferView": 12,
      "componentType": 5126,
      "count": 146,
      "max": [
        26.6664981842041,
        157.13624572753906,
        144.1282196044922
      ],
      "min": [
        -31.606853485107422,
        123.72966766357422,
        84.1634292602539
      ],
      "type": "VEC3"
    },
    {
      "bufferView": 13,
      "componentType": 5126,
      "count": 146,
      "max": [
        0.9916074275970459,
        0.9976195693016052,
        0.9249550104141235
      ],
      "min": [
        -0.9847712516784668,
        -0.999176025390625,
        -0.999969482421875
      ],
      "type": "VEC3"
    },
    {
      "bufferView": 14,
      "componentType": 5126,
      "count": 146,
      "max": [
        0.96875,
        0.96875
      ],
      "min": [
        0.03125,
        0.03125
      ],
      "type": "VEC2"
    },
    {
      "bufferView": 15,
      "componentType": 5123,
      "count": 576,
      "max": [
        145
      ],
      "min": [
        0
      ],
      "type": "SCALAR"
    },
    {
      "bufferView": 16,
      "componentType": 5126,
      "count": 646,
      "max": [
        85.47810363769531,
        185.67691040039062,
        84.17935943603516
      ],
      "min": [
        -85.47810363769531,
        152.17137145996094,
        51.79511642456055
      ],
      "type": "VEC3"
    },
    {
      "bufferView": 17,
      "componentType": 5126,
      "count": 646,
      "max": [
        0.9998779296875,
        0.9926145076751709,
        0.9689626693725586
      ],
      "min": [
        -0.9998779296875,
        -0.9926145076751709,
        -0.9689626693725586
      ],
      "type": "VEC3"
    },
    {
      "bufferView": 18,
      "componentType": 5126,
      "count": 646,
      "max": [
        1,
        1
      ],
      "min": [
        0,
        0
      ],
      "type": "VEC2"
    }
  ],
  "materials": [
    {
      "pbrMetallicRoughness": {
        "baseColorFactor": [
          0.800000011920929,
          0.72079998254776,
          0.6240000128746033,
          1
        ],
        "metallicFactor": 0,
        "roughnessFactor": 0.734085202217102
      },
      "doubleSided": true,
      "name": "material.003"
    },
    {
      "pbrMetallicRoughness": {
        "baseColorFactor": [
          0.5429670214653015,
          0.1059207171201706,
          0.6831716299057007,
          1
        ],
        "metallicFactor": 0,
        "roughnessFactor": 0.734085202217102
      },
      "doubleSided": true,
      "name": "Mat.1"
    },
    {
      "pbrMetallicRoughness": {
        "metallicFactor": 0,
        "roughnessFactor": 0.734085202217102
      },
      "doubleSided": true,
      "name": "Mat.3"
    },
    {
      "pbrMetallicRoughness": {
        "baseColorFactor": [
          1,
          0.9100000262260437,
          0.10000000149011612,
          1
        ],
        "metallicFactor": 0,
        "roughnessFactor": 0.734085202217102
      },
      "doubleSided": true,
      "name": "Mat.4"
    },
    {
      "pbrMetallicRoughness": {
        "baseColorFactor": [
          0.1899999976158142,
          0.1899999976158142,
          0.1899999976158142,
          1
        ],
        "metallicFactor": 0,
        "roughnessFactor": 0.734085202217102
      },
      "doubleSided": true,
      "name": "Mat.6"
    }
  ],
  "meshes": [
    {
      "primitives": [
        {
          "mode": 4,
          "attributes": {
            "POSITION": 0,
            "NORMAL": 1,
            "TEXCOORD_0": 2
          },
          "indices": 3,
          "material": 0
        }
      ]
    },
    {
      "primitives": [
        {
          "mode": 4,
          "attributes": {
            "POSITION": 4,
            "NORMAL": 5,
            "TEXCOORD_0": 6
          },
          "indices": 7,
          "material": 1
        }
      ]
    },
    {
      "primitives": [
        {
          "mode": 4,
          "attributes": {
            "POSITION": 8,
            "NORMAL": 9,
            "TEXCOORD_0": 10
          },
          "indices": 11,
          "material": 2
        }
      ]
    },
    {
      "primitives": [
        {
          "mode": 4,
          "attributes": {
            "POSITION": 12,
            "NORMAL": 13,
            "TEXCOORD_0": 14
          },
          "indices": 15,
          "material": 3
        }
      ]
    },
    {
      "primitives": [
        {
          "mode": 4,
          "attributes": {
            "POSITION": 16,
            "NORMAL": 17,
            "TEXCOORD_0": 18
          },
          "indices": 11,
          "material": 4
        }
      ]
    }
  ]
}