{
  "asset": {
    "version": "2.0",
    "generator": "THREE.GLTFExporter"
  },
  "scenes": [
    {
      "name": "Scene",
      "nodes": [
        4,
        5
      ]
    }
  ],
  "scene": 0,
  "nodes": [
    {
      "name": "rikki-color_1",
      "mesh": 0
    },
    {
      "name": "rikki-color_2",
      "mesh": 1
    },
    {
      "name": "rikki-color_3",
      "mesh": 2
    },
    {
      "name": "rikki-color_4",
      "mesh": 3
    },
    {
      "matrix": [
        0.9999999999999996,
        -2.9802322387695312e-8,
        6.617444900424222e-24,
        0,
        0,
        2.220446049250313e-16,
        0.9999999999999999,
        0,
        -2.9802322387695312e-8,
        -0.9999999999999994,
        2.220446049250313e-16,
        0,
        0,
        0,
        0,
        1
      ],
      "name": "rikki-color",
      "extras": {
        "name": "rikki-color"
      },
      "children": [
        0,
        1,
        2,
        3
      ]
    },
    {
      "matrix": [
        1,
        0,
        0,
        0,
        0,
        1,
        0,
        0,
        0,
        0,
        1,
        0,
        0,
        0,
        1.5690877565683468,
        1
      ],
      "name": "PointLight",
      "extensions": {
        "KHR_lights_punctual": {
          "light": 0
        }
      }
    }
  ],
  "bufferViews": [
    {
      "buffer": 0,
      "byteOffset": 0,
      "byteLength": 28284,
      "target": 34962,
      "byteStride": 12
    },
    {
      "buffer": 0,
      "byteOffset": 28284,
      "byteLength": 28284,
      "target": 34962,
      "byteStride": 12
    },
    {
      "buffer": 0,
      "byteOffset": 56568,
      "byteLength": 18856,
      "target": 34962,
      "byteStride": 8
    },
    {
      "buffer": 0,
      "byteOffset": 75424,
      "byteLength": 6468,
      "target": 34963
    },
    {
      "buffer": 0,
      "byteOffset": 81892,
      "byteLength": 5544,
      "target": 34962,
      "byteStride": 12
    },
    {
      "buffer": 0,
      "byteOffset": 87436,
      "byteLength": 5544,
      "target": 34962,
      "byteStride": 12
    },
    {
      "buffer": 0,
      "byteOffset": 92980,
      "byteLength": 3696,
      "target": 34962,
      "byteStride": 8
    },
    {
      "buffer": 0,
      "byteOffset": 96676,
      "byteLength": 2760,
      "target": 34963
    },
    {
      "buffer": 0,
      "byteOffset": 99436,
      "byteLength": 7392,
      "target": 34962,
      "byteStride": 12
    },
    {
      "buffer": 0,
      "byteOffset": 106828,
      "byteLength": 7392,
      "target": 34962,
      "byteStride": 12
    },
    {
      "buffer": 0,
      "byteOffset": 114220,
      "byteLength": 4928,
      "target": 34962,
      "byteStride": 8
    },
    {
      "buffer": 0,
      "byteOffset": 119148,
      "byteLength": 3684,
      "target": 34963
    },
    {
      "buffer": 0,
      "byteOffset": 122832,
      "byteLength": 38664,
      "target": 34962,
      "byteStride": 12
    },
    {
      "buffer": 0,
      "byteOffset": 161496,
      "byteLength": 38664,
      "target": 34962,
      "byteStride": 12
    },
    {
      "buffer": 0,
      "byteOffset": 200160,
      "byteLength": 25776,
      "target": 34962,
      "byteStride": 8
    },
    {
      "buffer": 0,
      "byteOffset": 225936,
      "byteLength": 11328,
      "target": 34963
    }
  ],
  "buffers": [
    {
      "byteLength": 237264,
      "uri": "data:application/octet-stream;base64,"
    }
  ],
  "accessors": [
    {
      "bufferView": 0,
      "componentType": 5126,
      "count": 2357,
      "max": [
        0.21455201506614685,
        -0.015475494787096977,
        0.48069506883621216
      ],
      "min": [
        -0.21667888760566711,
        -0.0425041988492012,
        -0.4963270127773285
      ],
      "type": "VEC3"
    },
    {
      "bufferView": 1,
      "componentType": 5126,
      "count": 2357,
      "max": [
        0.03815343603491783,
        0,
        0.1820867359638214
      ],
      "min": [
        -0.9832823872566223,
        -1,
        -0.4257977604866028
      ],
      "type": "VEC3"
    },
    {
      "bufferView": 2,
      "componentType": 5126,
      "count": 2357,
      "max": [
        0.9804554581642151,
        0.9806950688362122
      ],
      "min": [
        0.014781908132135868,
        0.0036730170249938965
      ],
      "type": "VEC2"
    },
    {
      "bufferView": 3,
      "componentType": 5123,
      "count": 3234,
      "max": [
        2356
      ],
      "min": [
        0
      ],
      "type": "SCALAR"
    },
    {
      "bufferView": 4,
      "componentType": 5126,
      "count": 462,
      "max": [
        0.18369093537330627,
        -0.0425041988492012,
        -0.005952060222625732
      ],
      "min": [
        0.009275747463107109,
        -0.0425041988492012,
        -0.4963270127773285
      ],
      "type": "VEC3"
    },
    {
      "bufferView": 5,
      "componentType": 5126,
      "count": 462,
      "max": [
        -9.180050142276741e-8,
        1,
        0
      ],
      "min": [
        -9.180050142276741e-8,
        1,
        0
      ],
      "type": "VEC3"
    },
    {
      "bufferView": 6,
      "componentType": 5126,
      "count": 462,
      "max": [
        0.9113467931747437,
        0.4940478801727295
      ],
      "min": [
        0.5207715630531311,
        0.0036730170249938965
      ],
      "type": "VEC2"
    },
    {
      "bufferView": 7,
      "componentType": 5123,
      "count": 1380,
      "max": [
        461
      ],
      "min": [
        0
      ],
      "type": "SCALAR"
    },
    {
      "bufferView": 8,
      "componentType": 5126,
      "count": 616,
      "max": [
        0.21455201506614685,
        -0.0425041988492012,
        0.48069506883621216
      ],
      "min": [
        -0.21667888760566711,
        -0.0425041988492012,
        -0.06968069076538086
      ],
      "type": "VEC3"
    },
    {
      "bufferView": 9,
      "componentType": 5126,
      "count": 616,
      "max": [
        -6.885081660357173e-8,
        0.9999999403953552,
        0
      ],
      "min": [
        -6.885081660357173e-8,
        0.9999999403953552,
        0
      ],
      "type": "VEC3"
    },
    {
      "bufferView": 10,
      "componentType": 5126,
      "count": 616,
      "max": [
        0.9804554581642151,
        0.9806950688362122
      ],
      "min": [
        0.014781908132135868,
        0.43031930923461914
      ],
      "type": "VEC2"
    },
    {
      "bufferView": 11,
      "componentType": 5123,
      "count": 1842,
      "max": [
        615
      ],
      "min": [
        0
      ],
      "type": "SCALAR"
    },
    {
      "bufferView": 12,
      "componentType": 5126,
      "count": 3222,
      "max": [
        0.21455201506614685,
        -0.015475494787096977,
        0.48069506883621216
      ],
      "min": [
        -0.21667888760566711,
        -0.0425041988492012,
        -0.4963270127773285
      ],
      "type": "VEC3"
    },
    {
      "bufferView": 13,
      "componentType": 5126,
      "count": 3222,
      "max": [
        1,
        0.0000015667520756323938,
        1
      ],
      "min": [
        -1,
        -0.005307672079652548,
        -1
      ],
      "type": "VEC3"
    },
    {
      "bufferView": 14,
      "componentType": 5126,
      "count": 3222,
      "max": [
        0.9804554581642151,
        0.9806950688362122
      ],
      "min": [
        0.014781908132135868,
        0.0036730170249938965
      ],
      "type": "VEC2"
    },
    {
      "bufferView": 15,
      "componentType": 5123,
      "count": 5664,
      "max": [
        3221
      ],
      "min": [
        0
      ],
      "type": "SCALAR"
    }
  ],
  "materials": [
    {
      "pbrMetallicRoughness": {
        "metallicFactor": 0,
        "roughnessFactor": 0.5,
        "baseColorTexture": {
          "index": 0
        }
      },
      "alphaMode": "BLEND",
      "doubleSided": true,
      "name": "rikki-color"
    },
    {
      "pbrMetallicRoughness": {
        "baseColorFactor": [
          0.800000011920929,
          0.800000011920929,
          0.800000011920929,
          1
        ],
        "metallicFactor": 0,
        "roughnessFactor": 0.5
      },
      "doubleSided": true,
      "name": "Material.003"
    },
    {
      "pbrMetallicRoughness": {
        "baseColorFactor": [
          0.800000011920929,
          0.800000011920929,
          0.800000011920929,
          1
        ],
        "metallicFactor": 0,
        "roughnessFactor": 0.5
      },
      "doubleSided": true,
      "name": "Material.001"
    },
    {
      "pbrMetallicRoughness": {
        "baseColorFactor": [
          0.800000011920929,
          0.800000011920929,
          0.800000011920929,
          1
        ],
        "metallicFactor": 0,
        "roughnessFactor": 0.5
      },
      "doubleSided": true,
      "name": "Material.002"
    }
  ],
  "textures": [
    {
      "sampler": 0,
      "source": 0
    }
  ],
  "samplers": [
    {
      "magFilter": 9729,
      "minFilter": 9987,
      "wrapS": 10497,
      "wrapT": 10497
    }
  ],
  "images": [
    {
      "mimeType": "image/png",
      "uri": "data:image/png;base64,"
    }
  ],
  "meshes": [
    {
      "primitives": [
        {
          "mode": 4,
          "attributes": {
            "POSITION": 0,
            "NORMAL": 1,
            "TEXCOORD_0": 2
          },
          "indices": 3,
          "material": 0
        }
      ]
    },
    {
      "primitives": [
        {
          "mode": 4,
          "attributes": {
            "POSITION": 4,
            "NORMAL": 5,
            "TEXCOORD_0": 6
          },
          "indices": 7,
          "material": 1
        }
      ]
    },
    {
      "primitives": [
        {
          "mode": 4,
          "attributes": {
            "POSITION": 8,
            "NORMAL": 9,
            "TEXCOORD_0": 10
          },
          "indices": 11,
          "material": 2
        }
      ]
    },
    {
      "primitives": [
        {
          "mode": 4,
          "attributes": {
            "POSITION": 12,
            "NORMAL": 13,
            "TEXCOORD_0": 14
          },
          "indices": 15,
          "material": 3
        }
      ]
    }
  ],
  "extensions": {
    "KHR_lights_punctual": {
      "lights": [
        {
          "name": "PointLight",
          "color": [
            1,
            1,
            1
          ],
          "intensity": 1,
          "type": "point"
        }
      ]
    }
  },
  "extensionsUsed": [
    "KHR_lights_punctual"
  ]
}